<svg width="24" height="24" viewBox="0 0 24 24" version="1.1" xmlns="http://www.w3.org/2000/svg" xmlns:xlink="http://www.w3.org/1999/xlink" xmlns:figma="http://www.figma.com/figma/ns">
<title>@24</title>
<desc>Created using Figma</desc>
<g id="Canvas" transform="translate(80 -955)" figma:type="canvas">
<mask id="mask0_alpha" mask-type="alpha">
<path d="M -80 955L -56 955L -56 979L -80 979L -80 955Z" fill="#FFFFFF"/>
</mask>
<g id="@24" mask="url(#mask0_alpha)" figma:type="frame">
<g id="Union" figma:type="vector">
<use xlink:href="#path0_fill" transform="translate(-80 955)" fill="#F40022"/>
<use xlink:href="#path1_fill" transform="translate(-80 955)" fill="#F40022"/>
<use xlink:href="#path2_fill" transform="translate(-80 955)" fill="#F40022"/>
</g>
</g>
</g>
<defs>
<path id="path0_fill" d="M 24 16L 21 19L 21 24L 24 24L 24 16Z"/>
<path id="path1_fill" d="M 3 19L 0 16L 0 24L 3 24L 3 19Z"/>
<path id="path2_fill" d="M 12 24L 0 12L 4 12L 12 20L 20 12L 12 4L 12 9L 9 9L 9 0L 18 0L 18 3L 15 3L 24 12L 12 24Z"/>
</defs>
</svg>
