<svg id="Ebene_1" data-name="Ebene 1" xmlns="http://www.w3.org/2000/svg" width="39.86" height="51.98" viewBox="0 0 39.86 51.98">
  <defs>
    <style>
      .cls-1 {
        font-size: 12px;
        font-family: ContrailOne-Regular, Contrail One;
      }

      .cls-2 {
        letter-spacing: -0.02em;
      }

      .cls-3 {
        letter-spacing: -0.04em;
      }

      .cls-4 {
        letter-spacing: -0.05em;
      }

      .cls-5 {
        letter-spacing: -0.07em;
      }

      .cls-6 {
        letter-spacing: -0.06em;
      }

      .cls-7 {
        letter-spacing: -0.07em;
      }

      .cls-8 {
        letter-spacing: -0.05em;
      }
    </style>
  </defs>
  <title>andtracked wordmark</title>
  <text class="cls-1" transform="translate(0 9.91)"><tspan class="cls-2">&amp;</tspan><tspan class="cls-3" x="5.93" y="0">t</tspan><tspan class="cls-4" x="9.79" y="0">r</tspan><tspan class="cls-5" x="13.89" y="0">a</tspan><tspan class="cls-6" x="19.18" y="0">c</tspan><tspan class="cls-7" x="23.65" y="0">k</tspan><tspan class="cls-8" x="28.52" y="0">e</tspan><tspan x="33.73" y="0">d</tspan></text>
  <g>
    <path d="M230.37,242.58l.94,0q.12,0,.12.16l-.13,1.13a.16.16,0,0,1-.15.15q-.59.06-1.14.06a1.67,1.67,0,0,1-1.36-.55,2.08,2.08,0,0,1-.46-1.37,2.78,2.78,0,0,1,.56-1.69,7.16,7.16,0,0,1,1.25-1.27,6.74,6.74,0,0,1-.55-2.36,2.34,2.34,0,0,1,.56-1.59,2,2,0,0,1,1.59-.64,1.77,1.77,0,0,1,1.32.52,1.83,1.83,0,0,1,.52,1.34,2.52,2.52,0,0,1-.54,1.57,7.79,7.79,0,0,1-1.24,1.22q.47,1,1.17,2.34t1.16,2.07a.33.33,0,0,1,.05.17.14.14,0,0,1-.15.15l-1.36.05a.18.18,0,0,1-.16-.11q-1.21-2.21-1.88-3.63a2.47,2.47,0,0,0-.79,1.59Q229.67,242.58,230.37,242.58Zm.5-5.84a4.29,4.29,0,0,0,.31,1.38,2.56,2.56,0,0,0,.8-1.58.73.73,0,0,0-.13-.46.46.46,0,0,0-.39-.18Q230.87,235.91,230.87,236.74Z" transform="translate(-227.75 -192.07)"/>
    <path d="M235.23,236.92a10.17,10.17,0,0,1,.18-1.33.18.18,0,0,1,.12,0l1.12,0q.16,0,.16.15-.11.65-.19,1.25l1.37,0a.13.13,0,0,1,.14.15l-.16.93q0,.14-.15.15l-1.34.05q-.4,3.59-.4,4,0,.69.59.69a1.82,1.82,0,0,0,.58-.09,1.65,1.65,0,0,1,.35-.09q.12,0,.12.15l-.12,1a.27.27,0,0,1,0,.13.72.72,0,0,1-.29.1,4.42,4.42,0,0,1-.87.06,1.86,1.86,0,0,1-1.34-.42,1.66,1.66,0,0,1-.43-1.25q0-.83.46-4.23l-.57,0a.13.13,0,0,1-.15-.15l.16-.94a.15.15,0,0,1,.15-.14Z" transform="translate(-227.75 -192.07)"/>
    <path d="M242.1,238.39l-.63-.06a2.47,2.47,0,0,0-1.28.3l-.58,5.17q0,.15-.15.16l-1.18,0q-.13,0-.13-.11l.77-6.81a.15.15,0,0,1,.15-.14l1.14,0q.16,0,.16.15l-.07.6a3.85,3.85,0,0,1,.73-.59,1.35,1.35,0,0,1,.71-.21,3.77,3.77,0,0,1,.54,0,.15.15,0,0,1,.12.16,7.89,7.89,0,0,1-.13,1.2A.16.16,0,0,1,242.1,238.39Z" transform="translate(-227.75 -192.07)"/>
    <path d="M247.46,237l-.76,6.76q0,.15-.15.16l-1.18,0q-.12,0-.12-.11l.11-.8a2.43,2.43,0,0,1-.59.7,1.15,1.15,0,0,1-.72.25,1.53,1.53,0,0,1-.68-.14,1.31,1.31,0,0,1-.46-.36,1.86,1.86,0,0,1-.29-.54,4.63,4.63,0,0,1-.21-1.54,8.85,8.85,0,0,1,.13-1.66q.13-.68.23-1A5.37,5.37,0,0,1,243,238a2.65,2.65,0,0,1,.38-.63,1.51,1.51,0,0,1,1.21-.57,1.2,1.2,0,0,1,.83.26,2,2,0,0,1,.48.77l.07-.8a.14.14,0,0,1,.15-.14l1.15,0Q247.46,236.91,247.46,237Zm-3.57,4.25q0,1.4.75,1.4a.62.62,0,0,0,.53-.3,3.4,3.4,0,0,0,.35-1.21,9.19,9.19,0,0,0,.15-1.32q0-.42,0-.53t0-.3a1.24,1.24,0,0,0-.06-.31,1.6,1.6,0,0,0-.12-.25.53.53,0,0,0-.49-.25.62.62,0,0,0-.54.3,2.41,2.41,0,0,0-.31.81A9.56,9.56,0,0,0,243.88,241.3Z" transform="translate(-227.75 -192.07)"/>
    <path d="M251.75,237a.21.21,0,0,1,.13.22l-.13,1.06q0,.12-.16.12a.71.71,0,0,1-.28-.06,2.45,2.45,0,0,0-.94-.25.7.7,0,0,0-.6.31,2.52,2.52,0,0,0-.36.89,8.81,8.81,0,0,0-.25,2q0,1.44.74,1.44a2.32,2.32,0,0,0,.87-.14,1.58,1.58,0,0,1,.43-.14q.21,0,.21.18l-.12,1q0,.11,0,.13l-.08,0a4.81,4.81,0,0,1-1.33.21,2.5,2.5,0,0,1-1-.16,1.55,1.55,0,0,1-.57-.41,2,2,0,0,1-.34-.6,4.22,4.22,0,0,1-.23-1.49,8.9,8.9,0,0,1,.35-2.6,4.06,4.06,0,0,1,.34-.79,2.32,2.32,0,0,1,.49-.62,2.38,2.38,0,0,1,1.63-.54A4,4,0,0,1,251.75,237Z" transform="translate(-227.75 -192.07)"/>
    <path d="M256.59,243.86q0,.11-.16.11l-1.25,0a.15.15,0,0,1-.13-.11l-1.2-3.37-.37,3.28a.24.24,0,0,1,0,.12.16.16,0,0,1-.11,0l-1.18,0q-.13,0-.13-.11l1.08-9.63a.24.24,0,0,1,0-.12.16.16,0,0,1,.11,0l1.15,0a.15.15,0,0,1,.15.16l-.67,5.93,1.56-3.07a.23.23,0,0,1,.19-.15l1.21,0q.15,0,.15.13a.29.29,0,0,1,0,.12l-1.75,3,1.34,3.6A.18.18,0,0,1,256.59,243.86Z" transform="translate(-227.75 -192.07)"/>
    <path d="M257.28,242.88a3.09,3.09,0,0,1-.19-.69,6.9,6.9,0,0,1,0-.94,10.48,10.48,0,0,1,.13-1.48q.43-2.93,2.66-2.93a1.57,1.57,0,0,1,1.32.59,2.44,2.44,0,0,1,.46,1.54,14,14,0,0,1-.12,1.83.17.17,0,0,1-.18.16l-2.89.1q0,.09,0,.23a2,2,0,0,0,.23,1,.76.76,0,0,0,.7.39,2.66,2.66,0,0,0,.87-.14,2.67,2.67,0,0,1,.47-.14.18.18,0,0,1,.12,0,.16.16,0,0,1,.05.13l-.12,1a.19.19,0,0,1,0,.11l-.1.06a4.91,4.91,0,0,1-1.37.21,2.63,2.63,0,0,1-1-.16,1.63,1.63,0,0,1-.58-.41A2,2,0,0,1,257.28,242.88Zm1.27-3.28-.05.38,1.53-.08a.21.21,0,0,0,.13,0,.8.8,0,0,0,.09-.48,4,4,0,0,0,0-.56,1.72,1.72,0,0,0-.09-.33.48.48,0,0,0-.46-.37,1,1,0,0,0-.51.11Q258.74,238.48,258.55,239.6Z" transform="translate(-227.75 -192.07)"/>
    <path d="M265.13,243.18a1.52,1.52,0,0,1-1.29.86,1.39,1.39,0,0,1-1.39-1,4.63,4.63,0,0,1-.21-1.54,8.85,8.85,0,0,1,.13-1.66q.13-.68.23-1a5.37,5.37,0,0,1,.27-.73,2.65,2.65,0,0,1,.38-.63,1.51,1.51,0,0,1,1.21-.57,1.2,1.2,0,0,1,.83.26,2,2,0,0,1,.49.77l.33-3.6a.16.16,0,0,1,.16-.16l1.15,0a.15.15,0,0,1,.15.16l-1.08,9.58q0,.15-.15.16l-1.18,0q-.12,0-.12-.11Zm-1.41-1.89q0,1.4.75,1.4a.62.62,0,0,0,.53-.3,3.4,3.4,0,0,0,.35-1.21,9.19,9.19,0,0,0,.15-1.32q0-.42,0-.53t0-.3a1.24,1.24,0,0,0-.06-.31,1.6,1.6,0,0,0-.12-.25.53.53,0,0,0-.49-.25.62.62,0,0,0-.54.3,2.41,2.41,0,0,0-.31.81A9.56,9.56,0,0,0,263.73,241.3Z" transform="translate(-227.75 -192.07)"/>
  </g>
</svg>
