<svg width="64" height="64" viewBox="0 0 64 64" version="1.1" xmlns="http://www.w3.org/2000/svg" xmlns:xlink="http://www.w3.org/1999/xlink" xmlns:figma="http://www.figma.com/figma/ns">
<title>Frame</title>
<desc>Created using Figma</desc>
<g id="Canvas" transform="translate(459 300)" figma:type="canvas">
<mask id="mask0_alpha" mask-type="alpha">
<path d="M -459 -300L -395 -300L -395 -236L -459 -236L -459 -300Z" fill="#FFFFFF"/>
</mask>
<g id="Frame" mask="url(#mask0_alpha)" figma:type="frame">
<path d="M -459 -300L -395 -300L -395 -236L -459 -236L -459 -300Z" fill="#FFFFFF"/>
<g id="Rectangle" figma:type="rounded-rectangle">
<use xlink:href="#path0_fill" transform="translate(-455 -268)"/>
</g>
<g id="Rectangle" figma:type="rounded-rectangle">
<use xlink:href="#path0_fill" transform="translate(-407 -268)"/>
</g>
<g id="Vector" figma:type="vector">
<use xlink:href="#path1_fill" transform="translate(-463 -304)" fill="#FFFFFF"/>
</g>
<g id="Vector" figma:type="vector">
<use xlink:href="#path2_fill" transform="translate(-455 -296)"/>
</g>
<g id="Vector" figma:type="vector">
<use xlink:href="#path3_fill" transform="translate(-445 -286)" fill="#FFFFFF"/>
</g>
<g id="Vector" figma:type="vector">
<use xlink:href="#path3_fill" transform="translate(-456 -297)" fill="#FFFFFF"/>
</g>
<g id="Rectangle 2" figma:type="rounded-rectangle">
<use xlink:href="#path4_fill" transform="translate(-433 -296)"/>
</g>
<g id="Rectangle 2" figma:type="rounded-rectangle">
<use xlink:href="#path4_fill" transform="matrix(6.12323e-17 -1 1 6.12323e-17 -433 -290)"/>
</g>
<g id="Rectangle 4" figma:type="rounded-rectangle">
<use xlink:href="#path5_fill" transform="translate(-456 -274)" fill="#FFFFFF"/>
</g>
</g>
</g>
<defs>
<path id="path0_fill" d="M 0 0L 8 0L 8 28L 0 28L 0 0Z"/>
<path id="path1_fill" d="M 36 0L 0 36L 36 72L 72 36L 36 0Z"/>
<path id="path2_fill" d="M 28 0L 0 28L 28 56L 56 28L 28 0Z"/>
<path id="path3_fill" d="M 18 0L 0 18L 18 36L 36 18L 18 0Z"/>
<path id="path4_fill" d="M 0 0L 6 0L 6 20L 0 20L 0 0Z"/>
<path id="path5_fill" d="M 0 0L 14 0L 14 6L 0 6L 0 0Z"/>
</defs>
</svg>
